<svg width="500" height="632" viewBox="0 0 500 632" fill="none" xmlns="http://www.w3.org/2000/svg">
<path d="M116.667 349.333H216.667H316.667M116.667 482.667H383.333ZM283.333 16H68.6665C39.9477 16 16.6665 39.2812 16.6665 68V564C16.6665 592.719 39.9477 616 68.6665 616H431.333C460.052 616 483.333 592.719 483.333 564V216M283.333 16H295.127C308.919 16 322.145 21.4786 331.897 31.2304L468.103 167.436C477.855 177.188 483.333 190.415 483.333 204.206V216M283.333 16V149.333C283.333 182.667 316.666 216 350 216H483.333" fill="white"/>
<path d="M116.667 349.333H216.667H316.667M116.667 482.667H383.333M283.333 16H68.6665C39.9477 16 16.6665 39.2812 16.6665 68V564C16.6665 592.719 39.9477 616 68.6665 616H431.333C460.052 616 483.333 592.719 483.333 564V216M283.333 16H295.127C308.919 16 322.145 21.4786 331.897 31.2304L468.103 167.436C477.855 177.188 483.333 190.415 483.333 204.206V216M283.333 16V149.333C283.333 182.667 316.666 216 350 216H483.333" stroke="#1944A0" stroke-width="32" stroke-linecap="round" stroke-linejoin="round"/>
</svg>
